<svg width="69" height="53" viewBox="0 0 69 53" fill="none" xmlns="http://www.w3.org/2000/svg">
<g filter="url(#filter0_d_300_13)">
<path fill-rule="evenodd" clip-rule="evenodd" d="M55.9993 16.637C55.9998 16.5914 56 16.5457 56 16.5C56 7.3873 46.3741 0 34.5 0C22.6259 0 13 7.3873 13 16.5C13 16.5457 13.0002 16.5914 13.0007 16.637C5.07726 20.085 0 25.3968 0 31.3554C0 41.7484 15.4462 50.1736 34.5 50.1736C53.5538 50.1736 69 41.7484 69 31.3554C69 25.3968 63.9227 20.085 55.9993 16.637Z" fill="#7E0417"/>
</g>
<path d="M22.7813 37.0352C22.7735 37.3555 22.6876 37.5898 22.5235 37.7383C22.3673 37.8945 22.1056 37.9688 21.7384 37.9609H20.5899C20.2228 37.9531 19.961 37.875 19.8048 37.7266C19.6563 37.5859 19.586 37.3555 19.5938 37.0352V33.6836C19.5938 33.2383 19.5157 32.918 19.3595 32.7227C19.211 32.5273 18.9728 32.4297 18.6446 32.4297H18.6095V37.0352C18.6173 37.3555 18.5431 37.5859 18.3868 37.7266C18.2384 37.875 17.9806 37.9531 17.6134 37.9609H16.4649C16.0978 37.9688 15.8321 37.8945 15.6681 37.7383C15.5118 37.5898 15.4298 37.3555 15.422 37.0352V30.5781C15.4142 30.2031 15.4845 29.9453 15.6329 29.8047C15.7892 29.6563 16.0509 29.5781 16.4181 29.5703H17.4728C17.6603 29.5703 17.8204 29.582 17.9532 29.6055C18.0938 29.5977 18.2345 29.5938 18.3751 29.5938H18.797C19.5157 29.6016 20.1407 29.6992 20.672 29.8867C21.0001 29.7695 21.3243 29.6914 21.6446 29.6523C21.9649 29.6133 22.4063 29.5938 22.9688 29.5938C24.2501 29.6094 25.2345 29.9023 25.922 30.4727C26.6095 31.043 26.9532 32.0469 26.9532 33.4844V37.0352C26.9454 37.3555 26.8595 37.5898 26.6954 37.7383C26.5392 37.8945 26.2774 37.9688 25.9103 37.9609H24.7618C24.3946 37.9531 24.1329 37.875 23.9767 37.7266C23.8282 37.5859 23.7579 37.3555 23.7657 37.0352V33.6836C23.7657 33.2383 23.6876 32.918 23.5313 32.7227C23.3829 32.5273 23.1329 32.4297 22.7813 32.4297V37.0352Z" fill="white"/>
<path d="M32.6134 32.6992C32.5821 32.418 32.5079 32.207 32.3907 32.0664C32.2423 31.8711 32.004 31.7734 31.6759 31.7734H31.5587C31.2306 31.7734 30.9884 31.8711 30.8321 32.0664C30.7228 32.207 30.6524 32.418 30.6212 32.6992H32.6134ZM34.8165 35.8047C35.1759 35.7969 35.4259 35.8711 35.5665 36.0273C35.7071 36.1758 35.7853 36.4336 35.8009 36.8008V36.8594C35.8087 37.2734 35.7345 37.5547 35.5782 37.7031C35.4298 37.8594 35.1759 37.9375 34.8165 37.9375H31.4063C30.1251 37.9219 29.1407 37.6289 28.4532 37.0586C27.7657 36.4883 27.422 35.4844 27.422 34.0469V33.4844C27.422 32.0469 27.7657 31.043 28.4532 30.4727C29.1407 29.9023 30.1251 29.6094 31.4063 29.5938H31.8282C33.1095 29.6094 34.0938 29.9023 34.7813 30.4727C35.4688 31.043 35.8126 32.0469 35.8126 33.4844V33.7656C35.8204 34.2031 35.7462 34.5 35.5899 34.6563C35.4415 34.8047 35.1876 34.8789 34.8282 34.8789H30.6212C30.6524 35.1602 30.7228 35.3711 30.8321 35.5117C30.9884 35.707 31.2306 35.8047 31.5587 35.8047H34.8165Z" fill="white"/>
<path d="M39.504 37.0352C39.5118 37.3555 39.4376 37.5859 39.2813 37.7266C39.1329 37.875 38.8751 37.9531 38.5079 37.9609H37.3595C36.9923 37.9688 36.7267 37.8945 36.5626 37.7383C36.4063 37.5898 36.3243 37.3555 36.3165 37.0352V30.5781C36.3087 30.2031 36.379 29.9453 36.5274 29.8047C36.6837 29.6563 36.9454 29.5781 37.3126 29.5703H38.3673C38.7032 29.5625 38.9571 29.6055 39.129 29.6992C39.2462 29.6758 39.3673 29.6563 39.4923 29.6406C39.7423 29.6094 40.0079 29.5938 40.2892 29.5938H40.711C41.9923 29.6094 42.9767 29.9023 43.6642 30.4727C44.3517 31.043 44.6954 32.0469 44.6954 33.4844V37.0352C44.6876 37.3555 44.6017 37.5898 44.4376 37.7383C44.2813 37.8945 44.0196 37.9688 43.6524 37.9609H42.504C42.1368 37.9531 41.8751 37.875 41.7188 37.7266C41.5704 37.5859 41.5001 37.3555 41.5079 37.0352V33.6836C41.5079 33.2383 41.4298 32.918 41.2735 32.7227C41.1251 32.5273 40.8868 32.4297 40.5587 32.4297H40.4415C40.1134 32.4297 39.879 32.5156 39.7384 32.6875C39.6056 32.8594 39.5274 33.0977 39.504 33.4023V37.0352Z" fill="white"/>
<path d="M50.379 30.4961C50.3712 30.1758 50.4415 29.9453 50.5899 29.8047C50.7462 29.6563 51.0079 29.5781 51.3751 29.5703H52.5235C52.8907 29.5625 53.1524 29.6367 53.3087 29.793C53.4728 29.9414 53.5587 30.1758 53.5665 30.4961V36.9531C53.5743 37.3281 53.5001 37.5859 53.3438 37.7266C53.1954 37.875 52.9376 37.9531 52.5704 37.9609H51.5157C51.1798 37.9688 50.9259 37.9258 50.754 37.832C50.6368 37.8555 50.5157 37.875 50.3907 37.8906C50.1407 37.9219 49.8751 37.9375 49.5938 37.9375H49.172C47.8907 37.9219 46.9063 37.6289 46.2188 37.0586C45.5313 36.4883 45.1876 35.4844 45.1876 34.0469V30.4961C45.1954 30.1758 45.2774 29.9414 45.4337 29.793C45.5978 29.6367 45.8634 29.5625 46.2306 29.5703H47.379C47.7462 29.5781 48.004 29.6563 48.1524 29.8047C48.3087 29.9453 48.3829 30.1758 48.3751 30.4961V33.8477C48.3751 34.293 48.4493 34.6133 48.5978 34.8086C48.754 35.0039 48.9962 35.1016 49.3243 35.1016H49.4415C49.7696 35.1016 50.0001 35.0156 50.1329 34.8438C50.2735 34.6719 50.3556 34.4336 50.379 34.1289V30.4961Z" fill="white"/>
<path d="M30 16C30 19.3137 29.1046 22 28 22C26.8954 22 26 19.3137 26 16C26 12.6863 26.8954 10 28 10C29.1046 10 30 12.6863 30 16Z" fill="white"/>
<path d="M41 16C41 19.3137 40.1046 22 39 22C37.8954 22 37 19.3137 37 16C37 12.6863 37.8954 10 39 10C40.1046 10 41 12.6863 41 16Z" fill="white"/>
<defs>
<filter id="filter0_d_300_13" x="0" y="0" width="69" height="52.1736" filterUnits="userSpaceOnUse" color-interpolation-filters="sRGB">
<feFlood flood-opacity="0" result="BackgroundImageFix"/>
<feColorMatrix in="SourceAlpha" type="matrix" values="0 0 0 0 0 0 0 0 0 0 0 0 0 0 0 0 0 0 127 0" result="hardAlpha"/>
<feOffset dy="2"/>
<feComposite in2="hardAlpha" operator="out"/>
<feColorMatrix type="matrix" values="0 0 0 0 1 0 0 0 0 1 0 0 0 0 1 0 0 0 1 0"/>
<feBlend mode="normal" in2="BackgroundImageFix" result="effect1_dropShadow_300_13"/>
<feBlend mode="normal" in="SourceGraphic" in2="effect1_dropShadow_300_13" result="shape"/>
</filter>
</defs>
</svg>
