<svg width="69" height="53" viewBox="0 0 69 53" fill="none" xmlns="http://www.w3.org/2000/svg">
<g filter="url(#filter0_d_300_13)">
<path fill-rule="evenodd" clip-rule="evenodd" d="M55.9993 16.637C55.9998 16.5914 56 16.5457 56 16.5C56 7.3873 46.3741 0 34.5 0C22.6259 0 13 7.3873 13 16.5C13 16.5457 13.0002 16.5914 13.0007 16.637C5.07726 20.085 0 25.3968 0 31.3554C0 41.7484 15.4462 50.1736 34.5 50.1736C53.5538 50.1736 69 41.7484 69 31.3554C69 25.3968 63.9227 20.085 55.9993 16.637Z" fill="#7E0417"/>
</g>
<path d="M22.7812 37.0352C22.7734 37.3555 22.6875 37.5898 22.5234 37.7383C22.3672 37.8945 22.1055 37.9688 21.7383 37.9609H20.5898C20.2227 37.9531 19.9609 37.875 19.8047 37.7266C19.6562 37.5859 19.5859 37.3555 19.5938 37.0352V33.6836C19.5938 33.2383 19.5156 32.918 19.3594 32.7227C19.2109 32.5273 18.9727 32.4297 18.6445 32.4297H18.6094V37.0352C18.6172 37.3555 18.543 37.5859 18.3867 37.7266C18.2383 37.875 17.9805 37.9531 17.6133 37.9609H16.4648C16.0977 37.9688 15.832 37.8945 15.668 37.7383C15.5117 37.5898 15.4297 37.3555 15.4219 37.0352V30.5781C15.4141 30.2031 15.4844 29.9453 15.6328 29.8047C15.7891 29.6562 16.0508 29.5781 16.418 29.5703H17.4727C17.6602 29.5703 17.8203 29.582 17.9531 29.6055C18.0938 29.5977 18.2344 29.5938 18.375 29.5938H18.7969C19.5156 29.6016 20.1406 29.6992 20.6719 29.8867C21 29.7695 21.3242 29.6914 21.6445 29.6523C21.9648 29.6133 22.4062 29.5938 22.9688 29.5938C24.25 29.6094 25.2344 29.9023 25.9219 30.4727C26.6094 31.043 26.9531 32.0469 26.9531 33.4844V37.0352C26.9453 37.3555 26.8594 37.5898 26.6953 37.7383C26.5391 37.8945 26.2773 37.9688 25.9102 37.9609H24.7617C24.3945 37.9531 24.1328 37.875 23.9766 37.7266C23.8281 37.5859 23.7578 37.3555 23.7656 37.0352V33.6836C23.7656 33.2383 23.6875 32.918 23.5312 32.7227C23.3828 32.5273 23.1328 32.4297 22.7812 32.4297V37.0352ZM32.6133 32.6992C32.582 32.418 32.5078 32.207 32.3906 32.0664C32.2422 31.8711 32.0039 31.7734 31.6758 31.7734H31.5586C31.2305 31.7734 30.9883 31.8711 30.832 32.0664C30.7227 32.207 30.6523 32.418 30.6211 32.6992H32.6133ZM34.8164 35.8047C35.1758 35.7969 35.4258 35.8711 35.5664 36.0273C35.707 36.1758 35.7852 36.4336 35.8008 36.8008V36.8594C35.8086 37.2734 35.7344 37.5547 35.5781 37.7031C35.4297 37.8594 35.1758 37.9375 34.8164 37.9375H31.4062C30.125 37.9219 29.1406 37.6289 28.4531 37.0586C27.7656 36.4883 27.4219 35.4844 27.4219 34.0469V33.4844C27.4219 32.0469 27.7656 31.043 28.4531 30.4727C29.1406 29.9023 30.125 29.6094 31.4062 29.5938H31.8281C33.1094 29.6094 34.0938 29.9023 34.7812 30.4727C35.4688 31.043 35.8125 32.0469 35.8125 33.4844V33.7656C35.8203 34.2031 35.7461 34.5 35.5898 34.6562C35.4414 34.8047 35.1875 34.8789 34.8281 34.8789H31.6289H30.6211C30.6523 35.1602 30.7227 35.3711 30.832 35.5117C30.9883 35.707 31.2305 35.8047 31.5586 35.8047H34.8164ZM39.5039 37.0352C39.5117 37.3555 39.4375 37.5859 39.2812 37.7266C39.1328 37.875 38.875 37.9531 38.5078 37.9609H37.3594C36.9922 37.9688 36.7266 37.8945 36.5625 37.7383C36.4062 37.5898 36.3242 37.3555 36.3164 37.0352V30.5781C36.3086 30.2031 36.3789 29.9453 36.5273 29.8047C36.6836 29.6562 36.9453 29.5781 37.3125 29.5703H38.3672C38.7031 29.5625 38.957 29.6055 39.1289 29.6992C39.2461 29.6758 39.3672 29.6562 39.4922 29.6406C39.7422 29.6094 40.0078 29.5938 40.2891 29.5938H40.7109C41.9922 29.6094 42.9766 29.9023 43.6641 30.4727C44.3516 31.043 44.6953 32.0469 44.6953 33.4844V37.0352C44.6875 37.3555 44.6016 37.5898 44.4375 37.7383C44.2812 37.8945 44.0195 37.9688 43.6523 37.9609H42.5039C42.1367 37.9531 41.875 37.875 41.7188 37.7266C41.5703 37.5859 41.5 37.3555 41.5078 37.0352V33.6836C41.5078 33.2383 41.4297 32.918 41.2734 32.7227C41.125 32.5273 40.8867 32.4297 40.5586 32.4297H40.4414C40.1133 32.4297 39.8789 32.5156 39.7383 32.6875C39.6055 32.8594 39.5273 33.0977 39.5039 33.4023V37.0352ZM50.3789 30.4961C50.3711 30.1758 50.4414 29.9453 50.5898 29.8047C50.7461 29.6562 51.0078 29.5781 51.375 29.5703H52.5234C52.8906 29.5625 53.1523 29.6367 53.3086 29.793C53.4727 29.9414 53.5586 30.1758 53.5664 30.4961V36.9531C53.5742 37.3281 53.5 37.5859 53.3438 37.7266C53.1953 37.875 52.9375 37.9531 52.5703 37.9609H51.5156C51.1797 37.9688 50.9258 37.9258 50.7539 37.832C50.6367 37.8555 50.5156 37.875 50.3906 37.8906C50.1406 37.9219 49.875 37.9375 49.5938 37.9375H49.1719C47.8906 37.9219 46.9062 37.6289 46.2188 37.0586C45.5312 36.4883 45.1875 35.4844 45.1875 34.0469V30.4961C45.1953 30.1758 45.2773 29.9414 45.4336 29.793C45.5977 29.6367 45.8633 29.5625 46.2305 29.5703H47.3789C47.7461 29.5781 48.0039 29.6562 48.1523 29.8047C48.3086 29.9453 48.3828 30.1758 48.375 30.4961V33.8477C48.375 34.293 48.4492 34.6133 48.5977 34.8086C48.7539 35.0039 48.9961 35.1016 49.3242 35.1016H49.4414C49.7695 35.1016 50 35.0156 50.1328 34.8438C50.2734 34.6719 50.3555 34.4336 50.3789 34.1289V30.4961Z" fill="white"/>
<ellipse cx="28" cy="16" rx="2" ry="6" fill="white"/>
<ellipse cx="39" cy="16" rx="2" ry="6" fill="white"/>
<defs>
<filter id="filter0_d_300_13" x="0" y="0" width="69" height="52.1736" filterUnits="userSpaceOnUse" color-interpolation-filters="sRGB">
<feFlood flood-opacity="0" result="BackgroundImageFix"/>
<feColorMatrix in="SourceAlpha" type="matrix" values="0 0 0 0 0 0 0 0 0 0 0 0 0 0 0 0 0 0 127 0" result="hardAlpha"/>
<feOffset dy="2"/>
<feComposite in2="hardAlpha" operator="out"/>
<feColorMatrix type="matrix" values="0 0 0 0 1 0 0 0 0 1 0 0 0 0 1 0 0 0 1 0"/>
<feBlend mode="normal" in2="BackgroundImageFix" result="effect1_dropShadow_300_13"/>
<feBlend mode="normal" in="SourceGraphic" in2="effect1_dropShadow_300_13" result="shape"/>
</filter>
</defs>
</svg>
