<svg width="290" height="212" viewBox="0 0 290 212" fill="none" xmlns="http://www.w3.org/2000/svg">
<path d="M144.951 0.370117C194.84 0.370117 235.283 31.4076 235.283 69.6943C235.283 69.8868 235.28 70.0794 235.278 70.2715C268.569 84.7582 289.903 107.074 289.903 132.109C289.903 175.775 225.006 211.174 144.951 211.174C64.8968 211.174 0 175.775 0 132.109C1.73363e-05 107.074 21.333 84.7573 54.624 70.2705C54.622 70.0788 54.6191 69.8865 54.6191 69.6943C54.6194 31.4077 95.0624 0.370217 144.951 0.370117Z" fill="#7E0417"/>
<path d="M95.7155 155.973C95.6827 157.319 95.3216 158.303 94.6323 158.927C93.9759 159.584 92.8762 159.895 91.3335 159.863H86.5084C84.9656 159.83 83.866 159.502 83.2095 158.878C82.5859 158.287 82.2905 157.319 82.3233 155.973V141.891C82.3233 140.02 81.995 138.675 81.3386 137.854C80.7149 137.033 79.7138 136.623 78.3351 136.623H78.1874V155.973C78.2203 157.319 77.9084 158.287 77.2519 158.878C76.6283 159.502 75.5451 159.83 74.0024 159.863H69.1772C67.6345 159.895 66.5185 159.584 65.8291 158.927C65.1727 158.303 64.828 157.319 64.7952 155.973V128.844C64.7624 127.268 65.0578 126.185 65.6814 125.594C66.3379 124.971 67.4375 124.642 68.9803 124.61H73.4115C74.1993 124.61 74.8722 124.659 75.4302 124.757C76.021 124.724 76.6119 124.708 77.2027 124.708H78.9752C81.995 124.741 84.621 125.151 86.853 125.939C88.2316 125.447 89.5938 125.118 90.9396 124.954C92.2854 124.79 94.14 124.708 96.5033 124.708C101.886 124.774 106.022 126.005 108.911 128.401C111.799 130.797 113.244 135.015 113.244 141.054V155.973C113.211 157.319 112.85 158.303 112.16 158.927C111.504 159.584 110.404 159.895 108.862 159.863H104.036C102.494 159.83 101.394 159.502 100.738 158.878C100.114 158.287 99.8185 157.319 99.8514 155.973V141.891C99.8514 140.02 99.5231 138.675 98.8666 137.854C98.243 137.033 97.1926 136.623 95.7155 136.623V155.973Z" fill="white"/>
<path d="M137.025 137.756C136.893 136.574 136.582 135.688 136.089 135.097C135.466 134.276 134.464 133.866 133.086 133.866H132.593C131.215 133.866 130.197 134.276 129.541 135.097C129.081 135.688 128.786 136.574 128.655 137.756H137.025ZM146.281 150.803C147.791 150.77 148.841 151.082 149.432 151.739C150.023 152.362 150.351 153.446 150.417 154.988V155.234C150.45 156.974 150.138 158.156 149.481 158.779C148.858 159.436 147.791 159.764 146.281 159.764H131.953C126.57 159.699 122.434 158.468 119.546 156.071C116.657 153.675 115.213 149.457 115.213 143.418V141.054C115.213 135.015 116.657 130.797 119.546 128.401C122.434 126.005 126.57 124.774 131.953 124.708H133.726C139.109 124.774 143.245 126.005 146.133 128.401C149.022 130.797 150.466 135.015 150.466 141.054V142.236C150.499 144.074 150.187 145.322 149.531 145.978C148.907 146.602 147.84 146.914 146.33 146.914H128.655C128.786 148.095 129.081 148.981 129.541 149.572C130.197 150.393 131.215 150.803 132.593 150.803H146.281Z" fill="white"/>
<path d="M165.976 155.973C166.008 157.319 165.697 158.287 165.04 158.878C164.416 159.502 163.333 159.83 161.791 159.863H156.965C155.423 159.895 154.307 159.584 153.617 158.927C152.961 158.303 152.616 157.319 152.583 155.973V128.844C152.551 127.268 152.846 126.185 153.47 125.594C154.126 124.971 155.226 124.642 156.768 124.61H161.2C162.611 124.577 163.678 124.757 164.4 125.151C164.892 125.053 165.401 124.971 165.926 124.905C166.977 124.774 168.093 124.708 169.274 124.708H171.047C176.43 124.774 180.566 126.005 183.454 128.401C186.343 130.797 187.787 135.015 187.787 141.054V155.973C187.754 157.319 187.393 158.303 186.704 158.927C186.048 159.584 184.948 159.895 183.405 159.863H178.58C177.037 159.83 175.938 159.502 175.281 158.878C174.658 158.287 174.362 157.319 174.395 155.973V141.891C174.395 140.02 174.067 138.675 173.41 137.854C172.787 137.033 171.785 136.623 170.407 136.623H169.915C168.536 136.623 167.551 136.984 166.96 137.706C166.402 138.428 166.074 139.43 165.976 140.71V155.973Z" fill="white"/>
<path d="M211.667 128.499C211.634 127.153 211.929 126.185 212.553 125.594C213.21 124.971 214.309 124.642 215.852 124.61H220.677C222.22 124.577 223.319 124.889 223.976 125.545C224.665 126.169 225.026 127.153 225.059 128.499V155.628C225.092 157.204 224.78 158.287 224.124 158.878C223.5 159.502 222.417 159.83 220.874 159.863H216.443C215.031 159.895 213.965 159.715 213.242 159.321C212.75 159.42 212.241 159.502 211.716 159.567C210.666 159.699 209.55 159.764 208.368 159.764H206.595C201.212 159.699 197.076 158.468 194.188 156.071C191.299 153.675 189.855 149.457 189.855 143.418V128.499C189.888 127.153 190.233 126.169 190.889 125.545C191.578 124.889 192.694 124.577 194.237 124.61H199.062C200.605 124.642 201.688 124.971 202.312 125.594C202.968 126.185 203.28 127.153 203.247 128.499V142.581C203.247 144.452 203.559 145.797 204.183 146.618C204.839 147.439 205.857 147.849 207.236 147.849H207.728C209.107 147.849 210.075 147.488 210.633 146.766C211.224 146.044 211.568 145.043 211.667 143.762V128.499Z" fill="white"/>
<path d="M126.045 67.594C126.045 81.5165 122.283 92.8029 117.642 92.8029C113.001 92.8029 109.239 81.5165 109.239 67.594C109.239 53.6714 113.001 42.385 117.642 42.385C122.283 42.385 126.045 53.6714 126.045 67.594Z" fill="white"/>
<path d="M172.261 67.594C172.261 81.5165 168.499 92.8029 163.858 92.8029C159.217 92.8029 155.455 81.5165 155.455 67.594C155.455 53.6714 159.217 42.385 163.858 42.385C168.499 42.385 172.261 53.6714 172.261 67.594Z" fill="white"/>
</svg>
