<svg width="440" height="37" viewBox="0 0 440 37" fill="none" xmlns="http://www.w3.org/2000/svg">
<path d="M31.5912 4.87858C32.7254 2.78158 35.7344 2.78158 36.8687 4.87858L46.7568 23.1601C47.838 25.159 46.3906 27.5874 44.1181 27.5874H24.3417C22.0692 27.5874 20.6218 25.159 21.703 23.1601L31.5912 4.87858Z" fill="white"/>
<path d="M-7.40883 4.87858C-6.2746 2.78158 -3.26558 2.78158 -2.13135 4.87858L7.75683 23.1601C8.83797 25.159 7.39059 27.5874 5.11809 27.5874H-14.6583C-16.9308 27.5874 -18.3782 25.159 -17.297 23.1601L-7.40883 4.87858Z" fill="white"/>
<path d="M149.591 4.87858C150.725 2.78158 153.734 2.78158 154.869 4.87858L164.757 23.1601C165.838 25.159 164.391 27.5874 162.118 27.5874H142.342C140.069 27.5874 138.622 25.159 139.703 23.1601L149.591 4.87858Z" fill="white"/>
<path d="M267.591 4.87858C268.725 2.78158 271.734 2.78158 272.869 4.87858L282.757 23.1601C283.838 25.159 282.391 27.5874 280.118 27.5874H260.342C258.069 27.5874 256.622 25.159 257.703 23.1601L267.591 4.87858Z" fill="white"/>
<path d="M51.5912 4.87858C52.7254 2.78158 55.7344 2.78158 56.8687 4.87858L66.7568 23.1601C67.838 25.159 66.3906 27.5874 64.1181 27.5874H44.3417C42.0692 27.5874 40.6218 25.159 41.703 23.1601L51.5912 4.87858Z" fill="white"/>
<path d="M12.5912 4.87858C13.7254 2.78158 16.7344 2.78158 17.8687 4.87858L27.7568 23.1601C28.838 25.159 27.3906 27.5874 25.1181 27.5874H5.34174C3.06923 27.5874 1.62185 25.159 2.70299 23.1601L12.5912 4.87858Z" fill="white"/>
<path d="M169.591 4.87858C170.725 2.78158 173.734 2.78158 174.869 4.87858L184.757 23.1601C185.838 25.159 184.391 27.5874 182.118 27.5874H162.342C160.069 27.5874 158.622 25.159 159.703 23.1601L169.591 4.87858Z" fill="white"/>
<path d="M287.591 4.87858C288.725 2.78158 291.734 2.78158 292.869 4.87858L302.757 23.1601C303.838 25.159 302.391 27.5874 300.118 27.5874H280.342C278.069 27.5874 276.622 25.159 277.703 23.1601L287.591 4.87858Z" fill="white"/>
<path d="M71.5912 4.87858C72.7254 2.78158 75.7344 2.78158 76.8687 4.87858L86.7568 23.1601C87.838 25.159 86.3906 27.5874 84.1181 27.5874H64.3417C62.0692 27.5874 60.6218 25.159 61.703 23.1601L71.5912 4.87858Z" fill="white"/>
<path d="M189.591 4.87858C190.725 2.78158 193.734 2.78158 194.869 4.87858L204.757 23.1601C205.838 25.159 204.391 27.5874 202.118 27.5874H182.342C180.069 27.5874 178.622 25.159 179.703 23.1601L189.591 4.87858Z" fill="white"/>
<path d="M307.591 4.87858C308.725 2.78158 311.734 2.78158 312.869 4.87858L322.757 23.1601C323.838 25.159 322.391 27.5874 320.118 27.5874H300.342C298.069 27.5874 296.622 25.159 297.703 23.1601L307.591 4.87858Z" fill="white"/>
<path d="M90.5912 4.87858C91.7254 2.78158 94.7344 2.78158 95.8687 4.87858L105.757 23.1601C106.838 25.159 105.391 27.5874 103.118 27.5874H83.3417C81.0692 27.5874 79.6218 25.159 80.703 23.1601L90.5912 4.87858Z" fill="white"/>
<path d="M208.591 4.87858C209.725 2.78158 212.734 2.78158 213.869 4.87858L223.757 23.1601C224.838 25.159 223.391 27.5874 221.118 27.5874H201.342C199.069 27.5874 197.622 25.159 198.703 23.1601L208.591 4.87858Z" fill="white"/>
<path d="M326.591 4.87858C327.725 2.78158 330.734 2.78158 331.869 4.87858L341.757 23.1601C342.838 25.159 341.391 27.5874 339.118 27.5874H319.342C317.069 27.5874 315.622 25.159 316.703 23.1601L326.591 4.87858Z" fill="white"/>
<path d="M109.591 4.87858C110.725 2.78158 113.734 2.78158 114.869 4.87858L124.757 23.1601C125.838 25.159 124.391 27.5874 122.118 27.5874H102.342C100.069 27.5874 98.6218 25.159 99.703 23.1601L109.591 4.87858Z" fill="white"/>
<path d="M227.591 4.87858C228.725 2.78158 231.734 2.78158 232.869 4.87858L242.757 23.1601C243.838 25.159 242.391 27.5874 240.118 27.5874H220.342C218.069 27.5874 216.622 25.159 217.703 23.1601L227.591 4.87858Z" fill="white"/>
<path d="M345.591 4.87858C346.725 2.78158 349.734 2.78158 350.869 4.87858L360.757 23.1601C361.838 25.159 360.391 27.5874 358.118 27.5874H338.342C336.069 27.5874 334.622 25.159 335.703 23.1601L345.591 4.87858Z" fill="white"/>
<path d="M129.591 4.87858C130.725 2.78158 133.734 2.78158 134.869 4.87858L144.757 23.1601C145.838 25.159 144.391 27.5874 142.118 27.5874H122.342C120.069 27.5874 118.622 25.159 119.703 23.1601L129.591 4.87858Z" fill="white"/>
<path d="M247.591 4.87858C248.725 2.78158 251.734 2.78158 252.869 4.87858L262.757 23.1601C263.838 25.159 262.391 27.5874 260.118 27.5874H240.342C238.069 27.5874 236.622 25.159 237.703 23.1601L247.591 4.87858Z" fill="white"/>
<path d="M365.591 4.87858C366.725 2.78158 369.734 2.78158 370.869 4.87858L380.757 23.1601C381.838 25.159 380.391 27.5874 378.118 27.5874H358.342C356.069 27.5874 354.622 25.159 355.703 23.1601L365.591 4.87858Z" fill="white"/>
<path d="M382.591 4.87858C383.725 2.78158 386.734 2.78158 387.869 4.87858L397.757 23.1601C398.838 25.159 397.391 27.5874 395.118 27.5874H375.342C373.069 27.5874 371.622 25.159 372.703 23.1601L382.591 4.87858Z" fill="white"/>
<path d="M402.591 4.87858C403.725 2.78158 406.734 2.78158 407.869 4.87858L417.757 23.1601C418.838 25.159 417.391 27.5874 415.118 27.5874H395.342C393.069 27.5874 391.622 25.159 392.703 23.1601L402.591 4.87858Z" fill="white"/>
<path d="M422.591 4.87858C423.725 2.78158 426.734 2.78158 427.869 4.87858L437.757 23.1601C438.838 25.159 437.391 27.5874 435.118 27.5874H415.342C413.069 27.5874 411.622 25.159 412.703 23.1601L422.591 4.87858Z" fill="white"/>
<path d="M441.591 4.87858C442.725 2.78158 445.734 2.78158 446.869 4.87858L456.757 23.1601C457.838 25.159 456.391 27.5874 454.118 27.5874H434.342C432.069 27.5874 430.622 25.159 431.703 23.1601L441.591 4.87858Z" fill="white"/>
</svg>
