<svg width="292" height="306" viewBox="0 0 292 306" fill="none" xmlns="http://www.w3.org/2000/svg">
<path d="M134.383 8.41536C138.978 -1.8186 153.508 -1.8186 158.102 8.41536L172.6 40.7061C175.747 47.7169 184.257 50.4818 190.924 46.6601L221.633 29.0577C231.365 23.4789 243.12 32.0193 240.822 42.9995L233.571 77.6446C231.996 85.1665 237.255 92.4052 244.896 93.2323L280.086 97.0418C291.239 98.2491 295.729 112.068 287.416 119.6L261.185 143.366C255.49 148.526 255.49 157.474 261.185 162.634L287.416 186.4C295.729 193.932 291.239 207.751 280.086 208.958L244.896 212.768C237.255 213.595 231.996 220.833 233.571 228.355L240.822 263.001C243.12 273.981 231.365 282.521 221.633 276.942L190.924 259.34C184.257 255.518 175.747 258.283 172.6 265.294L158.102 297.585C153.508 307.819 138.978 307.819 134.383 297.585L119.886 265.294C116.738 258.283 108.229 255.518 101.561 259.34L70.8526 276.942C61.12 282.521 49.3652 273.981 51.6634 263.001L58.9147 228.355C60.4891 220.833 55.2299 213.595 47.5896 212.768L12.3993 208.958C1.24641 207.751 -3.24354 193.932 5.0697 186.4L31.3001 162.634C36.9951 157.474 36.9951 148.526 31.3001 143.366L5.0697 119.6C-3.24353 112.068 1.24641 98.2491 12.3993 97.0418L47.5896 93.2323C55.2299 92.4052 60.4891 85.1666 58.9147 77.6446L51.6634 42.9995C49.3652 32.0193 61.12 23.4789 70.8526 29.0577L101.561 46.6601C108.229 50.4818 116.738 47.7169 119.886 40.7061L134.383 8.41536Z" fill="#371206"/>
</svg>
