<svg width="393" height="241" viewBox="0 0 393 241" fill="none" xmlns="http://www.w3.org/2000/svg">
<path d="M191.506 7.50143C193.88 3.93496 199.12 3.93497 201.494 7.50144L252.182 83.6338C253.01 84.8767 254.271 85.7663 255.719 86.129L369.753 114.68C375.81 116.196 375.81 124.804 369.753 126.32L255.719 154.871C254.271 155.234 253.01 156.123 252.182 157.366L201.494 233.499C199.12 237.065 193.88 237.065 191.506 233.499L140.818 157.366C139.99 156.123 138.729 155.234 137.281 154.871L23.247 126.32C17.19 124.804 17.19 116.196 23.247 114.68L137.281 86.129C138.729 85.7663 139.99 84.8767 140.818 83.6338L191.506 7.50143Z" fill="#00A4F5"/>
<mask id="path-2-outside-1_321_12" maskUnits="userSpaceOnUse" x="26.8125" y="66.5938" width="350" height="95" fill="black">
<rect fill="white" x="26.8125" y="66.5938" width="350" height="95"/>
<path d="M35.3125 87.375C33.8125 87.375 32.7812 87.0625 32.2188 86.4375C31.6562 85.75 31.375 84.7188 31.375 83.3438V76.5C31.375 74.6875 31.6562 73.5 32.2188 72.9375C32.7812 72.3125 33.8125 72 35.3125 72H110.5C112.125 72 113.188 72.3125 113.688 72.9375C114.188 73.5 114.5 74.6875 114.625 76.5V83.3438C114.625 84.7188 114.344 85.75 113.781 86.4375C113.219 87.0625 112.125 87.375 110.5 87.375H35.3125ZM43.375 127.125C41.375 127.125 39.9375 126.781 39.0625 126.094C38.1875 125.344 37.75 123.938 37.75 121.875V96.1875C37.75 94.1875 38.1875 92.75 39.0625 91.875C40 91 41.4688 90.5625 43.4688 90.5625H102.625C104.375 90.5625 105.719 91.0312 106.656 91.9688C107.656 92.8438 108.156 94.2812 108.156 96.2812V121.688C108.156 123.938 107.656 125.406 106.656 126.094C105.656 126.781 104.281 127.125 102.531 127.125H43.375ZM88.9375 111.844V106.031H57.0625V111.844H88.9375ZM34.75 155.906C33.25 155.906 32.2188 155.469 31.6562 154.594C31.0938 153.781 30.8125 152.562 30.8125 150.938V145.969C30.8125 143.781 31.0938 142.344 31.6562 141.656C32.2188 140.969 33.25 140.625 34.75 140.625H43.9375V134.438C44 133.5 44.375 132.656 45.0625 131.906C45.8125 131.156 46.8125 130.781 48.0625 130.781H59.125C60.25 130.781 61.1875 131.156 61.9375 131.906C62.75 132.656 63.1562 133.5 63.1562 134.438V140.625H82.8438V134.438C82.8438 133.5 83.2188 132.656 83.9688 131.906C84.7812 131.156 85.75 130.781 86.875 130.781H97.9375C99.1875 130.781 100.156 131.156 100.844 131.906C101.594 132.656 102 133.5 102.062 134.438V140.625H111.062C112.688 140.625 113.781 140.969 114.344 141.656C114.906 142.344 115.188 143.781 115.188 145.969V150.938C115.188 152.562 114.906 153.781 114.344 154.594C113.781 155.469 112.688 155.906 111.062 155.906H34.75Z"/>
<path d="M207.625 75.4688C208.75 75.4688 209.688 75.8438 210.438 76.5938C211.25 77.3438 211.656 78.1875 211.656 79.125V152.062C211.656 153.062 211.25 153.938 210.438 154.688C209.688 155.438 208.75 155.812 207.625 155.812H176.688C175.438 155.812 174.438 155.438 173.688 154.688C173 153.938 172.625 153.062 172.562 152.062V79.125C172.625 78.1875 173 77.3438 173.688 76.5938C174.438 75.8438 175.438 75.4688 176.688 75.4688H207.625ZM196.75 139.969V91.3125H187.469V139.969H196.75ZM163.656 81.0938C165.344 81.0938 166.469 81.375 167.031 81.9375C167.594 82.5 167.875 83.6875 167.875 85.5V92.25C167.875 93.625 167.594 94.6562 167.031 95.3438C166.469 95.9688 165.344 96.2812 163.656 96.2812H155.969V103.219H163.938C165.625 103.219 166.75 103.5 167.312 104.062C167.875 104.625 168.156 105.812 168.156 107.625V114.375C168.156 115.75 167.875 116.781 167.312 117.469C166.75 118.094 165.625 118.406 163.938 118.406H155.969L164.312 125.625C165.938 127.25 167 128.312 167.5 128.812C168.062 129.312 168.312 130.312 168.25 131.812V140.625C168.312 141.75 167.938 142.688 167.125 143.438C166.375 144.188 165.438 144.125 164.312 143.25L155.125 135.469C154.438 141.219 153.031 145.844 150.906 149.344C147.531 153.781 142.75 155.969 136.562 155.906H129.906C128.906 155.844 128.062 155.5 127.375 154.875C126.688 154.25 126.344 153.438 126.344 152.438V143.25C126.344 142.25 126.688 141.438 127.375 140.812C128.062 140.188 128.906 139.844 129.906 139.781H133.281C136.094 139.719 138.375 138.656 140.125 136.594C141.938 134.531 142.844 131.25 142.844 126.75V118.406H131.031C129.469 118.406 128.375 118.094 127.75 117.469C127.188 116.781 126.906 115.75 126.906 114.375V107.625C126.906 105.812 127.188 104.625 127.75 104.062C128.375 103.5 129.469 103.219 131.031 103.219H142.938V96.2812H140.594C138.969 98.5938 136.875 99.7188 134.312 99.6562H130.375C129.5 99.5938 128.688 99.25 127.938 98.625C127.25 98 126.906 97.1875 126.906 96.1875V87.75C126.906 86.75 127.25 85.9375 127.938 85.3125C128.688 84.6875 129.5 84.3438 130.375 84.2812C131.188 84.2188 131.719 83.7812 131.969 82.9688C132.281 82.1562 132.438 80.875 132.438 79.125V74.4375C132.438 73.4375 132.781 72.5625 133.469 71.8125C134.219 71 135.094 70.5938 136.094 70.5938H140.875C141.938 70.5938 142.812 71 143.5 71.8125C144.188 72.5625 144.531 73.4375 144.531 74.4375V81.0938H163.656Z"/>
<path d="M255.156 114.281C253.656 114.281 252.625 113.969 252.062 113.344C251.5 112.656 251.219 111.625 251.219 110.25V103.875C251.219 102.062 251.469 100.875 251.969 100.312C252.531 99.75 253.594 99.4688 255.156 99.4688H256.562V92.5312C255.312 92.4688 254.406 92.125 253.844 91.5C253.344 90.875 253.094 89.875 253.094 88.5V82.125C253.094 80.3125 253.375 79.125 253.938 78.5625C254.5 78 255.531 77.7188 257.031 77.7188H262.938V75.375C263 74.4375 263.375 73.5938 264.062 72.8438C264.812 72.0938 265.812 71.7188 267.062 71.7188H268.094C269.219 71.7188 270.156 72.0938 270.906 72.8438C271.719 73.5938 272.125 74.4375 272.125 75.375V77.7188H278.969C280.594 77.7188 281.688 78 282.25 78.5625C282.812 79.125 283.094 80.3125 283.094 82.125V88.5C283.094 89.875 282.812 90.9062 282.25 91.5938C281.688 92.2188 280.594 92.5312 278.969 92.5312H278.5V99.4688H285.531V75.6562C285.531 74.6562 285.875 73.75 286.562 72.9375C287.25 72.125 288.094 71.7188 289.094 71.7188H291.531C292.469 71.7188 293.281 72.125 293.969 72.9375C294.656 73.75 295 74.6562 295 75.6562V99.4688H304.844C306.469 99.4688 307.562 99.75 308.125 100.312C308.688 100.875 308.969 102.062 308.969 103.875V110.25C308.969 111.625 308.688 112.656 308.125 113.344C307.562 113.969 306.469 114.281 304.844 114.281H295V115.125C294.938 119.75 295.406 123.531 296.406 126.469C297.406 123.844 297.875 122.188 297.812 121.5V120.656C297.812 119.656 298.156 118.75 298.844 117.938C299.531 117.125 300.344 116.719 301.281 116.719H303.719C304.719 116.719 305.562 117.125 306.25 117.938C306.938 118.75 307.281 119.656 307.281 120.656V121.5C307.281 126.5 306.156 131.469 303.906 136.406C306.156 138.281 307.531 139.5 308.031 140.062C308.531 140.562 308.781 141.312 308.781 142.312V152.062C308.781 153.062 308.438 153.875 307.75 154.5C307.062 155.125 306.219 155.469 305.219 155.531C303.219 155.531 300.312 153.125 296.5 148.312C292.688 153.125 289.719 155.531 287.594 155.531C286.594 155.469 285.812 155.125 285.25 154.5C284.688 153.875 284.406 153.062 284.406 152.062V142.312C284.406 141.312 284.656 140.562 285.156 140.062C285.656 139.5 286.969 138.312 289.094 136.5C286.719 131.25 285.531 125.75 285.531 120V114.281H255.156ZM307.281 93.1875C307.281 94.1875 306.875 95.0625 306.062 95.8125C305.312 96.5625 304.375 96.9375 303.25 96.9375H302.219C300.969 96.9375 299.969 96.5625 299.219 95.8125C298.531 95.0625 298.156 94.1875 298.094 93.1875V75.375C298.156 74.4375 298.531 73.5938 299.219 72.8438C299.969 72.0938 300.969 71.7188 302.219 71.7188H303.25C304.375 71.7188 305.312 72.0938 306.062 72.8438C306.875 73.5938 307.281 74.4375 307.281 75.375V93.1875ZM276.344 156.094H258.812C257.062 156.094 255.688 155.75 254.688 155.062C253.688 154.375 253.188 152.906 253.188 150.656V122.812C253.188 120.812 253.656 119.375 254.594 118.5C255.594 117.625 256.969 117.188 258.719 117.188H276.25C278.25 117.188 279.688 117.625 280.562 118.5C281.5 119.312 281.969 120.719 281.969 122.719V150.844C281.969 152.906 281.531 154.281 280.656 154.969C279.781 155.719 278.344 156.094 276.344 156.094ZM270.156 127.594H264.906V131.531H270.156V127.594ZM270.156 141.844H264.906V145.781H270.156V141.844ZM265.75 99.4688H269.312V92.5312H265.75V99.4688ZM245.5 83.1562H227.125C226.125 83.1562 225.281 82.8438 224.594 82.2188C223.969 81.5312 223.656 80.6875 223.656 79.6875V75.4688C223.656 74.5312 223.969 73.7188 224.594 73.0312C225.281 72.3438 226.125 72 227.125 72H245.5C246.5 72 247.344 72.3438 248.031 73.0312C248.719 73.7188 249.062 74.5312 249.062 75.4688V79.6875C249.062 80.6875 248.719 81.5312 248.031 82.2188C247.344 82.8438 246.5 83.1562 245.5 83.1562ZM248.5 96.8438H224.5C223.5 96.8438 222.656 96.5 221.969 95.8125C221.344 95.125 221.031 94.2812 221.031 93.2812V89.1562C221.031 88.1562 221.344 87.3125 221.969 86.625C222.656 85.9375 223.5 85.5938 224.5 85.5938H248.5C249.562 85.5938 250.438 85.9375 251.125 86.625C251.812 87.3125 252.156 88.1562 252.156 89.1562V93.2812C252.156 94.2812 251.812 95.125 251.125 95.8125C250.438 96.5 249.562 96.8438 248.5 96.8438ZM245.5 110.062H227.125C226.125 110.062 225.281 109.75 224.594 109.125C223.969 108.438 223.656 107.594 223.656 106.594V102.375C223.656 101.438 223.969 100.625 224.594 99.9375C225.281 99.25 226.125 98.9062 227.125 98.9062H245.5C246.5 98.9062 247.344 99.25 248.031 99.9375C248.719 100.625 249.062 101.438 249.062 102.375V106.594C249.062 107.594 248.719 108.438 248.031 109.125C247.344 109.75 246.5 110.062 245.5 110.062ZM245.5 123.375H227.125C226.125 123.375 225.281 123.031 224.594 122.344C223.969 121.656 223.656 120.812 223.656 119.812V115.688C223.656 114.75 223.969 113.938 224.594 113.25C225.281 112.5 226.125 112.125 227.125 112.125H245.5C246.5 112.125 247.344 112.5 248.031 113.25C248.719 113.938 249.062 114.75 249.062 115.688V119.812C249.062 120.812 248.719 121.656 248.031 122.344C247.344 123.031 246.5 123.375 245.5 123.375ZM247 156.094H225.25C224.25 156.094 223.406 155.75 222.719 155.062C222.094 154.375 221.781 153.531 221.781 152.531V129.281C221.781 128.344 222.094 127.531 222.719 126.844C223.406 126.156 224.25 125.812 225.25 125.812H247C248 125.812 248.844 126.156 249.531 126.844C250.281 127.531 250.656 128.344 250.656 129.281V152.531C250.656 153.531 250.281 154.375 249.531 155.062C248.844 155.75 248 156.094 247 156.094ZM238 144V138.094H234.438V144H238Z"/>
<path d="M349.562 145.688C349.562 142.5 350.656 139.812 352.844 137.625C355.094 135.375 357.812 134.25 361 134.25C364.188 134.25 366.875 135.375 369.062 137.625C371.312 139.812 372.438 142.5 372.438 145.688C372.438 148.875 371.312 151.562 369.062 153.75C366.875 156 364.188 157.125 361 157.125C357.812 157.125 355.094 156 352.844 153.75C350.656 151.562 349.562 148.875 349.562 145.688ZM355.562 131.625L350.125 90.1875C349.75 88.0625 349.562 85.75 349.562 83.25C349.562 79.25 350.625 76.375 352.75 74.625C354.875 72.875 357.625 71.875 361 71.625C364.5 71.875 367.281 72.8438 369.344 74.5312C371.406 76.2188 372.438 79.125 372.438 83.25C372.438 85.75 372.25 88.0625 371.875 90.1875L366.812 131.625H355.562Z"/>
</mask>
<path d="M35.3125 87.375C33.8125 87.375 32.7812 87.0625 32.2188 86.4375C31.6562 85.75 31.375 84.7188 31.375 83.3438V76.5C31.375 74.6875 31.6562 73.5 32.2188 72.9375C32.7812 72.3125 33.8125 72 35.3125 72H110.5C112.125 72 113.188 72.3125 113.688 72.9375C114.188 73.5 114.5 74.6875 114.625 76.5V83.3438C114.625 84.7188 114.344 85.75 113.781 86.4375C113.219 87.0625 112.125 87.375 110.5 87.375H35.3125ZM43.375 127.125C41.375 127.125 39.9375 126.781 39.0625 126.094C38.1875 125.344 37.75 123.938 37.75 121.875V96.1875C37.75 94.1875 38.1875 92.75 39.0625 91.875C40 91 41.4688 90.5625 43.4688 90.5625H102.625C104.375 90.5625 105.719 91.0312 106.656 91.9688C107.656 92.8438 108.156 94.2812 108.156 96.2812V121.688C108.156 123.938 107.656 125.406 106.656 126.094C105.656 126.781 104.281 127.125 102.531 127.125H43.375ZM88.9375 111.844V106.031H57.0625V111.844H88.9375ZM34.75 155.906C33.25 155.906 32.2188 155.469 31.6562 154.594C31.0938 153.781 30.8125 152.562 30.8125 150.938V145.969C30.8125 143.781 31.0938 142.344 31.6562 141.656C32.2188 140.969 33.25 140.625 34.75 140.625H43.9375V134.438C44 133.5 44.375 132.656 45.0625 131.906C45.8125 131.156 46.8125 130.781 48.0625 130.781H59.125C60.25 130.781 61.1875 131.156 61.9375 131.906C62.75 132.656 63.1562 133.5 63.1562 134.438V140.625H82.8438V134.438C82.8438 133.5 83.2188 132.656 83.9688 131.906C84.7812 131.156 85.75 130.781 86.875 130.781H97.9375C99.1875 130.781 100.156 131.156 100.844 131.906C101.594 132.656 102 133.5 102.062 134.438V140.625H111.062C112.688 140.625 113.781 140.969 114.344 141.656C114.906 142.344 115.188 143.781 115.188 145.969V150.938C115.188 152.562 114.906 153.781 114.344 154.594C113.781 155.469 112.688 155.906 111.062 155.906H34.75Z" fill="#FFBA08"/>
<path d="M207.625 75.4688C208.75 75.4688 209.688 75.8438 210.438 76.5938C211.25 77.3438 211.656 78.1875 211.656 79.125V152.062C211.656 153.062 211.25 153.938 210.438 154.688C209.688 155.438 208.75 155.812 207.625 155.812H176.688C175.438 155.812 174.438 155.438 173.688 154.688C173 153.938 172.625 153.062 172.562 152.062V79.125C172.625 78.1875 173 77.3438 173.688 76.5938C174.438 75.8438 175.438 75.4688 176.688 75.4688H207.625ZM196.75 139.969V91.3125H187.469V139.969H196.75ZM163.656 81.0938C165.344 81.0938 166.469 81.375 167.031 81.9375C167.594 82.5 167.875 83.6875 167.875 85.5V92.25C167.875 93.625 167.594 94.6562 167.031 95.3438C166.469 95.9688 165.344 96.2812 163.656 96.2812H155.969V103.219H163.938C165.625 103.219 166.75 103.5 167.312 104.062C167.875 104.625 168.156 105.812 168.156 107.625V114.375C168.156 115.75 167.875 116.781 167.312 117.469C166.75 118.094 165.625 118.406 163.938 118.406H155.969L164.312 125.625C165.938 127.25 167 128.312 167.5 128.812C168.062 129.312 168.312 130.312 168.25 131.812V140.625C168.312 141.75 167.938 142.688 167.125 143.438C166.375 144.188 165.438 144.125 164.312 143.25L155.125 135.469C154.438 141.219 153.031 145.844 150.906 149.344C147.531 153.781 142.75 155.969 136.562 155.906H129.906C128.906 155.844 128.062 155.5 127.375 154.875C126.688 154.25 126.344 153.438 126.344 152.438V143.25C126.344 142.25 126.688 141.438 127.375 140.812C128.062 140.188 128.906 139.844 129.906 139.781H133.281C136.094 139.719 138.375 138.656 140.125 136.594C141.938 134.531 142.844 131.25 142.844 126.75V118.406H131.031C129.469 118.406 128.375 118.094 127.75 117.469C127.188 116.781 126.906 115.75 126.906 114.375V107.625C126.906 105.812 127.188 104.625 127.75 104.062C128.375 103.5 129.469 103.219 131.031 103.219H142.938V96.2812H140.594C138.969 98.5938 136.875 99.7188 134.312 99.6562H130.375C129.5 99.5938 128.688 99.25 127.938 98.625C127.25 98 126.906 97.1875 126.906 96.1875V87.75C126.906 86.75 127.25 85.9375 127.938 85.3125C128.688 84.6875 129.5 84.3438 130.375 84.2812C131.188 84.2188 131.719 83.7812 131.969 82.9688C132.281 82.1562 132.438 80.875 132.438 79.125V74.4375C132.438 73.4375 132.781 72.5625 133.469 71.8125C134.219 71 135.094 70.5938 136.094 70.5938H140.875C141.938 70.5938 142.812 71 143.5 71.8125C144.188 72.5625 144.531 73.4375 144.531 74.4375V81.0938H163.656Z" fill="#FFBA08"/>
<path d="M255.156 114.281C253.656 114.281 252.625 113.969 252.062 113.344C251.5 112.656 251.219 111.625 251.219 110.25V103.875C251.219 102.062 251.469 100.875 251.969 100.312C252.531 99.75 253.594 99.4688 255.156 99.4688H256.562V92.5312C255.312 92.4688 254.406 92.125 253.844 91.5C253.344 90.875 253.094 89.875 253.094 88.5V82.125C253.094 80.3125 253.375 79.125 253.938 78.5625C254.5 78 255.531 77.7188 257.031 77.7188H262.938V75.375C263 74.4375 263.375 73.5938 264.062 72.8438C264.812 72.0938 265.812 71.7188 267.062 71.7188H268.094C269.219 71.7188 270.156 72.0938 270.906 72.8438C271.719 73.5938 272.125 74.4375 272.125 75.375V77.7188H278.969C280.594 77.7188 281.688 78 282.25 78.5625C282.812 79.125 283.094 80.3125 283.094 82.125V88.5C283.094 89.875 282.812 90.9062 282.25 91.5938C281.688 92.2188 280.594 92.5312 278.969 92.5312H278.5V99.4688H285.531V75.6562C285.531 74.6562 285.875 73.75 286.562 72.9375C287.25 72.125 288.094 71.7188 289.094 71.7188H291.531C292.469 71.7188 293.281 72.125 293.969 72.9375C294.656 73.75 295 74.6562 295 75.6562V99.4688H304.844C306.469 99.4688 307.562 99.75 308.125 100.312C308.688 100.875 308.969 102.062 308.969 103.875V110.25C308.969 111.625 308.688 112.656 308.125 113.344C307.562 113.969 306.469 114.281 304.844 114.281H295V115.125C294.938 119.75 295.406 123.531 296.406 126.469C297.406 123.844 297.875 122.188 297.812 121.5V120.656C297.812 119.656 298.156 118.75 298.844 117.938C299.531 117.125 300.344 116.719 301.281 116.719H303.719C304.719 116.719 305.562 117.125 306.25 117.938C306.938 118.75 307.281 119.656 307.281 120.656V121.5C307.281 126.5 306.156 131.469 303.906 136.406C306.156 138.281 307.531 139.5 308.031 140.062C308.531 140.562 308.781 141.312 308.781 142.312V152.062C308.781 153.062 308.438 153.875 307.75 154.5C307.062 155.125 306.219 155.469 305.219 155.531C303.219 155.531 300.312 153.125 296.5 148.312C292.688 153.125 289.719 155.531 287.594 155.531C286.594 155.469 285.812 155.125 285.25 154.5C284.688 153.875 284.406 153.062 284.406 152.062V142.312C284.406 141.312 284.656 140.562 285.156 140.062C285.656 139.5 286.969 138.312 289.094 136.5C286.719 131.25 285.531 125.75 285.531 120V114.281H255.156ZM307.281 93.1875C307.281 94.1875 306.875 95.0625 306.062 95.8125C305.312 96.5625 304.375 96.9375 303.25 96.9375H302.219C300.969 96.9375 299.969 96.5625 299.219 95.8125C298.531 95.0625 298.156 94.1875 298.094 93.1875V75.375C298.156 74.4375 298.531 73.5938 299.219 72.8438C299.969 72.0938 300.969 71.7188 302.219 71.7188H303.25C304.375 71.7188 305.312 72.0938 306.062 72.8438C306.875 73.5938 307.281 74.4375 307.281 75.375V93.1875ZM276.344 156.094H258.812C257.062 156.094 255.688 155.75 254.688 155.062C253.688 154.375 253.188 152.906 253.188 150.656V122.812C253.188 120.812 253.656 119.375 254.594 118.5C255.594 117.625 256.969 117.188 258.719 117.188H276.25C278.25 117.188 279.688 117.625 280.562 118.5C281.5 119.312 281.969 120.719 281.969 122.719V150.844C281.969 152.906 281.531 154.281 280.656 154.969C279.781 155.719 278.344 156.094 276.344 156.094ZM270.156 127.594H264.906V131.531H270.156V127.594ZM270.156 141.844H264.906V145.781H270.156V141.844ZM265.75 99.4688H269.312V92.5312H265.75V99.4688ZM245.5 83.1562H227.125C226.125 83.1562 225.281 82.8438 224.594 82.2188C223.969 81.5312 223.656 80.6875 223.656 79.6875V75.4688C223.656 74.5312 223.969 73.7188 224.594 73.0312C225.281 72.3438 226.125 72 227.125 72H245.5C246.5 72 247.344 72.3438 248.031 73.0312C248.719 73.7188 249.062 74.5312 249.062 75.4688V79.6875C249.062 80.6875 248.719 81.5312 248.031 82.2188C247.344 82.8438 246.5 83.1562 245.5 83.1562ZM248.5 96.8438H224.5C223.5 96.8438 222.656 96.5 221.969 95.8125C221.344 95.125 221.031 94.2812 221.031 93.2812V89.1562C221.031 88.1562 221.344 87.3125 221.969 86.625C222.656 85.9375 223.5 85.5938 224.5 85.5938H248.5C249.562 85.5938 250.438 85.9375 251.125 86.625C251.812 87.3125 252.156 88.1562 252.156 89.1562V93.2812C252.156 94.2812 251.812 95.125 251.125 95.8125C250.438 96.5 249.562 96.8438 248.5 96.8438ZM245.5 110.062H227.125C226.125 110.062 225.281 109.75 224.594 109.125C223.969 108.438 223.656 107.594 223.656 106.594V102.375C223.656 101.438 223.969 100.625 224.594 99.9375C225.281 99.25 226.125 98.9062 227.125 98.9062H245.5C246.5 98.9062 247.344 99.25 248.031 99.9375C248.719 100.625 249.062 101.438 249.062 102.375V106.594C249.062 107.594 248.719 108.438 248.031 109.125C247.344 109.75 246.5 110.062 245.5 110.062ZM245.5 123.375H227.125C226.125 123.375 225.281 123.031 224.594 122.344C223.969 121.656 223.656 120.812 223.656 119.812V115.688C223.656 114.75 223.969 113.938 224.594 113.25C225.281 112.5 226.125 112.125 227.125 112.125H245.5C246.5 112.125 247.344 112.5 248.031 113.25C248.719 113.938 249.062 114.75 249.062 115.688V119.812C249.062 120.812 248.719 121.656 248.031 122.344C247.344 123.031 246.5 123.375 245.5 123.375ZM247 156.094H225.25C224.25 156.094 223.406 155.75 222.719 155.062C222.094 154.375 221.781 153.531 221.781 152.531V129.281C221.781 128.344 222.094 127.531 222.719 126.844C223.406 126.156 224.25 125.812 225.25 125.812H247C248 125.812 248.844 126.156 249.531 126.844C250.281 127.531 250.656 128.344 250.656 129.281V152.531C250.656 153.531 250.281 154.375 249.531 155.062C248.844 155.75 248 156.094 247 156.094ZM238 144V138.094H234.438V144H238Z" fill="#FFBA08"/>
<path d="M349.562 145.688C349.562 142.5 350.656 139.812 352.844 137.625C355.094 135.375 357.812 134.25 361 134.25C364.188 134.25 366.875 135.375 369.062 137.625C371.312 139.812 372.438 142.5 372.438 145.688C372.438 148.875 371.312 151.562 369.062 153.75C366.875 156 364.188 157.125 361 157.125C357.812 157.125 355.094 156 352.844 153.75C350.656 151.562 349.562 148.875 349.562 145.688ZM355.562 131.625L350.125 90.1875C349.75 88.0625 349.562 85.75 349.562 83.25C349.562 79.25 350.625 76.375 352.75 74.625C354.875 72.875 357.625 71.875 361 71.625C364.5 71.875 367.281 72.8438 369.344 74.5312C371.406 76.2188 372.438 79.125 372.438 83.25C372.438 85.75 372.25 88.0625 371.875 90.1875L366.812 131.625H355.562Z" fill="#FFBA08"/>
<path d="M35.3125 87.375C33.8125 87.375 32.7812 87.0625 32.2188 86.4375C31.6562 85.75 31.375 84.7188 31.375 83.3438V76.5C31.375 74.6875 31.6562 73.5 32.2188 72.9375C32.7812 72.3125 33.8125 72 35.3125 72H110.5C112.125 72 113.188 72.3125 113.688 72.9375C114.188 73.5 114.5 74.6875 114.625 76.5V83.3438C114.625 84.7188 114.344 85.75 113.781 86.4375C113.219 87.0625 112.125 87.375 110.5 87.375H35.3125ZM43.375 127.125C41.375 127.125 39.9375 126.781 39.0625 126.094C38.1875 125.344 37.75 123.938 37.75 121.875V96.1875C37.75 94.1875 38.1875 92.75 39.0625 91.875C40 91 41.4688 90.5625 43.4688 90.5625H102.625C104.375 90.5625 105.719 91.0312 106.656 91.9688C107.656 92.8438 108.156 94.2812 108.156 96.2812V121.688C108.156 123.938 107.656 125.406 106.656 126.094C105.656 126.781 104.281 127.125 102.531 127.125H43.375ZM88.9375 111.844V106.031H57.0625V111.844H88.9375ZM34.75 155.906C33.25 155.906 32.2188 155.469 31.6562 154.594C31.0938 153.781 30.8125 152.562 30.8125 150.938V145.969C30.8125 143.781 31.0938 142.344 31.6562 141.656C32.2188 140.969 33.25 140.625 34.75 140.625H43.9375V134.438C44 133.5 44.375 132.656 45.0625 131.906C45.8125 131.156 46.8125 130.781 48.0625 130.781H59.125C60.25 130.781 61.1875 131.156 61.9375 131.906C62.75 132.656 63.1562 133.5 63.1562 134.438V140.625H82.8438V134.438C82.8438 133.5 83.2188 132.656 83.9688 131.906C84.7812 131.156 85.75 130.781 86.875 130.781H97.9375C99.1875 130.781 100.156 131.156 100.844 131.906C101.594 132.656 102 133.5 102.062 134.438V140.625H111.062C112.688 140.625 113.781 140.969 114.344 141.656C114.906 142.344 115.188 143.781 115.188 145.969V150.938C115.188 152.562 114.906 153.781 114.344 154.594C113.781 155.469 112.688 155.906 111.062 155.906H34.75Z" stroke="#00A4F5" stroke-width="8" mask="url(#path-2-outside-1_321_12)"/>
<path d="M207.625 75.4688C208.75 75.4688 209.688 75.8438 210.438 76.5938C211.25 77.3438 211.656 78.1875 211.656 79.125V152.062C211.656 153.062 211.25 153.938 210.438 154.688C209.688 155.438 208.75 155.812 207.625 155.812H176.688C175.438 155.812 174.438 155.438 173.688 154.688C173 153.938 172.625 153.062 172.562 152.062V79.125C172.625 78.1875 173 77.3438 173.688 76.5938C174.438 75.8438 175.438 75.4688 176.688 75.4688H207.625ZM196.75 139.969V91.3125H187.469V139.969H196.75ZM163.656 81.0938C165.344 81.0938 166.469 81.375 167.031 81.9375C167.594 82.5 167.875 83.6875 167.875 85.5V92.25C167.875 93.625 167.594 94.6562 167.031 95.3438C166.469 95.9688 165.344 96.2812 163.656 96.2812H155.969V103.219H163.938C165.625 103.219 166.75 103.5 167.312 104.062C167.875 104.625 168.156 105.812 168.156 107.625V114.375C168.156 115.75 167.875 116.781 167.312 117.469C166.75 118.094 165.625 118.406 163.938 118.406H155.969L164.312 125.625C165.938 127.25 167 128.312 167.5 128.812C168.062 129.312 168.312 130.312 168.25 131.812V140.625C168.312 141.75 167.938 142.688 167.125 143.438C166.375 144.188 165.438 144.125 164.312 143.25L155.125 135.469C154.438 141.219 153.031 145.844 150.906 149.344C147.531 153.781 142.75 155.969 136.562 155.906H129.906C128.906 155.844 128.062 155.5 127.375 154.875C126.688 154.25 126.344 153.438 126.344 152.438V143.25C126.344 142.25 126.688 141.438 127.375 140.812C128.062 140.188 128.906 139.844 129.906 139.781H133.281C136.094 139.719 138.375 138.656 140.125 136.594C141.938 134.531 142.844 131.25 142.844 126.75V118.406H131.031C129.469 118.406 128.375 118.094 127.75 117.469C127.188 116.781 126.906 115.75 126.906 114.375V107.625C126.906 105.812 127.188 104.625 127.75 104.062C128.375 103.5 129.469 103.219 131.031 103.219H142.938V96.2812H140.594C138.969 98.5938 136.875 99.7188 134.312 99.6562H130.375C129.5 99.5938 128.688 99.25 127.938 98.625C127.25 98 126.906 97.1875 126.906 96.1875V87.75C126.906 86.75 127.25 85.9375 127.938 85.3125C128.688 84.6875 129.5 84.3438 130.375 84.2812C131.188 84.2188 131.719 83.7812 131.969 82.9688C132.281 82.1562 132.438 80.875 132.438 79.125V74.4375C132.438 73.4375 132.781 72.5625 133.469 71.8125C134.219 71 135.094 70.5938 136.094 70.5938H140.875C141.938 70.5938 142.812 71 143.5 71.8125C144.188 72.5625 144.531 73.4375 144.531 74.4375V81.0938H163.656Z" stroke="#00A4F5" stroke-width="8" mask="url(#path-2-outside-1_321_12)"/>
<path d="M255.156 114.281C253.656 114.281 252.625 113.969 252.062 113.344C251.5 112.656 251.219 111.625 251.219 110.25V103.875C251.219 102.062 251.469 100.875 251.969 100.312C252.531 99.75 253.594 99.4688 255.156 99.4688H256.562V92.5312C255.312 92.4688 254.406 92.125 253.844 91.5C253.344 90.875 253.094 89.875 253.094 88.5V82.125C253.094 80.3125 253.375 79.125 253.938 78.5625C254.5 78 255.531 77.7188 257.031 77.7188H262.938V75.375C263 74.4375 263.375 73.5938 264.062 72.8438C264.812 72.0938 265.812 71.7188 267.062 71.7188H268.094C269.219 71.7188 270.156 72.0938 270.906 72.8438C271.719 73.5938 272.125 74.4375 272.125 75.375V77.7188H278.969C280.594 77.7188 281.688 78 282.25 78.5625C282.812 79.125 283.094 80.3125 283.094 82.125V88.5C283.094 89.875 282.812 90.9062 282.25 91.5938C281.688 92.2188 280.594 92.5312 278.969 92.5312H278.5V99.4688H285.531V75.6562C285.531 74.6562 285.875 73.75 286.562 72.9375C287.25 72.125 288.094 71.7188 289.094 71.7188H291.531C292.469 71.7188 293.281 72.125 293.969 72.9375C294.656 73.75 295 74.6562 295 75.6562V99.4688H304.844C306.469 99.4688 307.562 99.75 308.125 100.312C308.688 100.875 308.969 102.062 308.969 103.875V110.25C308.969 111.625 308.688 112.656 308.125 113.344C307.562 113.969 306.469 114.281 304.844 114.281H295V115.125C294.938 119.75 295.406 123.531 296.406 126.469C297.406 123.844 297.875 122.188 297.812 121.5V120.656C297.812 119.656 298.156 118.75 298.844 117.938C299.531 117.125 300.344 116.719 301.281 116.719H303.719C304.719 116.719 305.562 117.125 306.25 117.938C306.938 118.75 307.281 119.656 307.281 120.656V121.5C307.281 126.5 306.156 131.469 303.906 136.406C306.156 138.281 307.531 139.5 308.031 140.062C308.531 140.562 308.781 141.312 308.781 142.312V152.062C308.781 153.062 308.438 153.875 307.75 154.5C307.062 155.125 306.219 155.469 305.219 155.531C303.219 155.531 300.312 153.125 296.5 148.312C292.688 153.125 289.719 155.531 287.594 155.531C286.594 155.469 285.812 155.125 285.25 154.5C284.688 153.875 284.406 153.062 284.406 152.062V142.312C284.406 141.312 284.656 140.562 285.156 140.062C285.656 139.5 286.969 138.312 289.094 136.5C286.719 131.25 285.531 125.75 285.531 120V114.281H255.156ZM307.281 93.1875C307.281 94.1875 306.875 95.0625 306.062 95.8125C305.312 96.5625 304.375 96.9375 303.25 96.9375H302.219C300.969 96.9375 299.969 96.5625 299.219 95.8125C298.531 95.0625 298.156 94.1875 298.094 93.1875V75.375C298.156 74.4375 298.531 73.5938 299.219 72.8438C299.969 72.0938 300.969 71.7188 302.219 71.7188H303.25C304.375 71.7188 305.312 72.0938 306.062 72.8438C306.875 73.5938 307.281 74.4375 307.281 75.375V93.1875ZM276.344 156.094H258.812C257.062 156.094 255.688 155.75 254.688 155.062C253.688 154.375 253.188 152.906 253.188 150.656V122.812C253.188 120.812 253.656 119.375 254.594 118.5C255.594 117.625 256.969 117.188 258.719 117.188H276.25C278.25 117.188 279.688 117.625 280.562 118.5C281.5 119.312 281.969 120.719 281.969 122.719V150.844C281.969 152.906 281.531 154.281 280.656 154.969C279.781 155.719 278.344 156.094 276.344 156.094ZM270.156 127.594H264.906V131.531H270.156V127.594ZM270.156 141.844H264.906V145.781H270.156V141.844ZM265.75 99.4688H269.312V92.5312H265.75V99.4688ZM245.5 83.1562H227.125C226.125 83.1562 225.281 82.8438 224.594 82.2188C223.969 81.5312 223.656 80.6875 223.656 79.6875V75.4688C223.656 74.5312 223.969 73.7188 224.594 73.0312C225.281 72.3438 226.125 72 227.125 72H245.5C246.5 72 247.344 72.3438 248.031 73.0312C248.719 73.7188 249.062 74.5312 249.062 75.4688V79.6875C249.062 80.6875 248.719 81.5312 248.031 82.2188C247.344 82.8438 246.5 83.1562 245.5 83.1562ZM248.5 96.8438H224.5C223.5 96.8438 222.656 96.5 221.969 95.8125C221.344 95.125 221.031 94.2812 221.031 93.2812V89.1562C221.031 88.1562 221.344 87.3125 221.969 86.625C222.656 85.9375 223.5 85.5938 224.5 85.5938H248.5C249.562 85.5938 250.438 85.9375 251.125 86.625C251.812 87.3125 252.156 88.1562 252.156 89.1562V93.2812C252.156 94.2812 251.812 95.125 251.125 95.8125C250.438 96.5 249.562 96.8438 248.5 96.8438ZM245.5 110.062H227.125C226.125 110.062 225.281 109.75 224.594 109.125C223.969 108.438 223.656 107.594 223.656 106.594V102.375C223.656 101.438 223.969 100.625 224.594 99.9375C225.281 99.25 226.125 98.9062 227.125 98.9062H245.5C246.5 98.9062 247.344 99.25 248.031 99.9375C248.719 100.625 249.062 101.438 249.062 102.375V106.594C249.062 107.594 248.719 108.438 248.031 109.125C247.344 109.75 246.5 110.062 245.5 110.062ZM245.5 123.375H227.125C226.125 123.375 225.281 123.031 224.594 122.344C223.969 121.656 223.656 120.812 223.656 119.812V115.688C223.656 114.75 223.969 113.938 224.594 113.25C225.281 112.5 226.125 112.125 227.125 112.125H245.5C246.5 112.125 247.344 112.5 248.031 113.25C248.719 113.938 249.062 114.75 249.062 115.688V119.812C249.062 120.812 248.719 121.656 248.031 122.344C247.344 123.031 246.5 123.375 245.5 123.375ZM247 156.094H225.25C224.25 156.094 223.406 155.75 222.719 155.062C222.094 154.375 221.781 153.531 221.781 152.531V129.281C221.781 128.344 222.094 127.531 222.719 126.844C223.406 126.156 224.25 125.812 225.25 125.812H247C248 125.812 248.844 126.156 249.531 126.844C250.281 127.531 250.656 128.344 250.656 129.281V152.531C250.656 153.531 250.281 154.375 249.531 155.062C248.844 155.75 248 156.094 247 156.094ZM238 144V138.094H234.438V144H238Z" stroke="#00A4F5" stroke-width="8" mask="url(#path-2-outside-1_321_12)"/>
<path d="M349.562 145.688C349.562 142.5 350.656 139.812 352.844 137.625C355.094 135.375 357.812 134.25 361 134.25C364.188 134.25 366.875 135.375 369.062 137.625C371.312 139.812 372.438 142.5 372.438 145.688C372.438 148.875 371.312 151.562 369.062 153.75C366.875 156 364.188 157.125 361 157.125C357.812 157.125 355.094 156 352.844 153.75C350.656 151.562 349.562 148.875 349.562 145.688ZM355.562 131.625L350.125 90.1875C349.75 88.0625 349.562 85.75 349.562 83.25C349.562 79.25 350.625 76.375 352.75 74.625C354.875 72.875 357.625 71.875 361 71.625C364.5 71.875 367.281 72.8438 369.344 74.5312C371.406 76.2188 372.438 79.125 372.438 83.25C372.438 85.75 372.25 88.0625 371.875 90.1875L366.812 131.625H355.562Z" stroke="#00A4F5" stroke-width="8" mask="url(#path-2-outside-1_321_12)"/>
</svg>
